<?xml version="1.0" encoding="UTF-8"?><svg id="svg_canvas" data-noselect="" viewBox="0 0 800 600" width="800" height="600" preserveAspectRatio="none" version="1.1" xmlns="http://www.w3.org/2000/svg" xmlns:xlink="http://www.w3.org/1999/xlink"><defs></defs> <g id="background" data-noselect=""><rect fill="#FFFFFF" width="800" height="600" data-noselect=""></rect> <!----></g> <g id="shape_LuCFFq5l9m" transform="translate(277.731905652075,143.273057059235) rotate(0,122.26809434793,114.1003079172) scale(1,1)" filter="" style="cursor: move; opacity: 1;"><g><rect fill="rgba(0,0,0,0)" width="264.53618869585" height="248.2006158344" x="-10" y="-10"></rect><svg version="1.1" id="图层_1" xmlns="http://www.w3.org/2000/svg" xmlns:xlink="http://www.w3.org/1999/xlink" x="0px" y="0px" width="244.53618869585" height="228.2006158344" viewBox="1.7999995946884155 1 111.0161361694336 103.60000610351562" style="enable-background:new 0 0 115 106;" xml:space="preserve" class="style-removed" preserveAspectRatio="none" data-parent="shape_LuCFFq5l9m">

<g>
	<g>
		<path d="M102.1,68.2c-6.5,20.6-25.8,35.5-48.6,35.5c-16.3,0-30.9-7.7-40.2-19.6c1.3,1.1,3.2,1.2,4.6,0.3
			c1.8-1.2,2.3-3.6,1.1-5.4c-1.2-1.8-0.7-4.2,1.1-5.4c1.5-1,3.5-0.8,4.8,0.4c0.3,0.4,0.5,0.7,0.8,1.1c6.5,8.1,16.5,13.3,27.7,13.3
			c13.9,0,26-8,31.8-19.7c3.4,2.4,8.2,3.7,13.7,1.4C100.1,69.4,101.1,68.8,102.1,68.2z" fill="#15377C" stroke-width="0"></path>
	</g>
	<g>
		<path d="M30.2,78.7c-1.2-0.1-1.8-1.1-1.9-2c-0.3-0.1-0.7-0.1-1-0.1c-1.4,0.2-2.4,1.5-2.3,2.9c0.2,1.4,1.5,2.4,2.9,2.3
			c1.4-0.2,2.4-1.5,2.3-2.9C30.2,78.8,30.2,78.8,30.2,78.7z" fill="#FFFFFF" stroke-width="0"></path>
	</g>
	<g>
		<circle cx="31.8" cy="96" r="3.2" fill="#FFFFFF" stroke-width="0"></circle>
	</g>
	<g>
		<circle cx="50.8" cy="90.6" r="2.9" fill="#FFFFFF" stroke-width="0"></circle>
	</g>
	<g>
		<path d="M71.3,100.6c0.2-0.1,0.5-0.1,0.7-0.1c0-1.1-0.4-2.3-1.3-3.1c-1.6-1.5-4.2-1.4-5.7,0.2
			c-1.3,1.4-1.4,3.4-0.4,4.9C66.8,101.9,69.1,101.5,71.3,100.6z" fill="#FFFFFF" stroke-width="0"></path>
	</g>
	<g>
		<path d="M79,78.9c-0.2-0.2-0.4-0.3-0.6-0.4c-0.1,0.3-0.3,0.6-0.5,0.9c-1.1,1.1-2.2,2-3.5,2.8c0.2,0.4,0.4,0.7,0.7,1
			c1.2,1.1,3,1,4.1-0.1C80.2,81.9,80.2,80,79,78.9z" fill="#FFFFFF" stroke-width="0"></path>
	</g>
	<g>
		<path d="M96.3,80.8c0.3-0.6,0.7-1.2,1.3-1.5c-0.2-0.6-0.5-1.2-1.1-1.7c-1.6-1.5-4-1.4-5.4,0.2c-1.5,1.6-1.4,4,0.2,5.4
			c1,0.9,2.3,1.2,3.5,0.9C95.3,83,95.9,81.9,96.3,80.8z" fill="#FFFFFF" stroke-width="0"></path>
	</g>
	<g>
		<path d="M53.5,104.6c-16.1,0-31-7.3-40.9-20c-0.3-0.4-0.2-0.9,0.1-1.2c0.3-0.3,0.8-0.3,1.2,0c1,0.8,2.5,0.9,3.6,0.2
			c0.7-0.4,1.2-1.1,1.3-1.9c0.2-0.8,0-1.6-0.4-2.3c-1.4-2.2-0.8-5.2,1.4-6.6c1.8-1.2,4.3-1,5.9,0.5c0,0,0.1,0.1,0.1,0.1
			c0.3,0.4,0.5,0.7,0.8,1c6.6,8.2,16.4,12.9,27,12.9c13.2,0,25.1-7.4,31-19.3c0.1-0.2,0.3-0.4,0.6-0.5c0.2-0.1,0.5,0,0.7,0.1
			c2.2,1.6,6.9,3.8,12.9,1.3c1-0.4,2-1,2.9-1.6c0.3-0.2,0.7-0.2,1,0c0.3,0.2,0.4,0.6,0.3,1c-3.3,10.4-9.7,19.4-18.5,25.9
			C75.4,101,64.7,104.6,53.5,104.6z M15.9,85.8c9.5,10.8,23.1,17,37.6,17c21.1,0,39.7-13,47-32.7c-0.4,0.2-0.8,0.4-1.1,0.5
			c-6.1,2.5-11,0.7-13.7-0.9c-6.3,12-18.5,19.3-32.1,19.3c-11.1,0-21.4-5-28.3-13.6c-0.3-0.3-0.5-0.7-0.8-1c-1-0.9-2.5-1-3.7-0.3
			c-1.4,0.9-1.8,2.8-0.9,4.2c0.7,1.1,0.9,2.3,0.7,3.6c-0.3,1.3-1,2.3-2.1,3C17.6,85.5,16.8,85.8,15.9,85.8z" fill="#15377C" stroke-width="0"></path>
	</g>
</g>
<g>
	<path d="M53.5,89.1c-19.2,0-35.1-15-36.3-34.1c0,0,0,0,0-0.1v0c0-0.1,0-0.2,0-0.3c0,0,0,0,0-0.1c0-0.6,0-1.2,0-1.8
		c0-20,16.3-36.3,36.3-36.3c8.8,0,17.3,3.2,23.9,9C84,31.1,88.3,39,89.5,47.5c0,0.3-0.1,0.6-0.3,0.8c-0.2,0.2-0.5,0.3-0.8,0.2
		c-0.7-0.2-1.1-0.2-1.4-0.1c-1.3,0.3-2.9,1-5.2,4c-1.3,1.7-1.4,2.8-1.1,3.3c0.2,0.3,0.8,0.5,1.4,0.4c0.6-0.1,1.1-0.6,1.7-1.1
		c0.9-0.8,2-1.7,3.8-1.9c0.5,0,0.9,0,1.5,0.2c1.7,0.5,3.8,1.8,4.7,3.8c0.6,1.3,0.6,2.6,0,3.9c0,0,0,0,0,0c-0.6,1.3-1.6,2.3-2.8,2.7
		c-1.2,0.4-2.6,0.2-4-0.5c-0.7-0.4-1.3-0.9-1.8-1.5c-1.4-1.5-2.4-2.2-3.1-2.2c-0.2,0-0.6,0.1-1.3,1c-0.6,1,1,4.6,4.8,7.2
		c0.4,0.2,0.5,0.7,0.3,1.1C79.9,81.3,67.4,89.1,53.5,89.1z M19,54.8c1.1,18.2,16.3,32.5,34.5,32.5c13,0,24.7-7.1,30.7-18.6
		c-3.7-2.9-5.9-7.1-4.6-9.2c0,0,0,0,0,0c0.5-0.6,1.2-1.4,2.2-1.7c-1,0-2-0.4-2.5-1.2c-0.6-0.9-0.8-2.5,1.2-5.2
		c2.5-3.4,4.4-4.3,6.1-4.7c0.3-0.1,0.6-0.1,1-0.1c-2.9-16.3-17.3-28.5-34.1-28.5c-19.1,0-34.6,15.5-34.6,34.6c0,0.6,0,1.1,0,1.7
		C19,54.5,19,54.7,19,54.8L19,54.8z M82.4,57.8c1.2,0,2.5,0.9,4.2,2.7c0.4,0.5,0.9,0.8,1.4,1.1c0.9,0.5,1.8,0.6,2.6,0.4
		c0.7-0.2,1.4-0.8,1.8-1.7c0.4-0.8,0.4-1.6,0-2.4c-0.7-1.4-2.3-2.5-3.6-2.9c-0.3-0.1-0.6-0.1-0.9-0.1c-1.2,0.1-1.9,0.7-2.8,1.4
		c-0.7,0.6-1.5,1.3-2.5,1.5C82.5,57.8,82.5,57.8,82.4,57.8z M93.2,60.6L93.2,60.6L93.2,60.6z" fill="#15377C" stroke-width="0"></path>
</g>
<g>
	<path d="M93.3,71.9c-3.8,0-6.8-1.6-8.5-2.7c-4.1-2.9-6.6-7.5-5.2-9.6c0,0,0,0,0,0c0.5-0.6,1.2-1.4,2.2-1.7
		c-1,0-2-0.4-2.5-1.2c-0.6-0.9-0.8-2.5,1.2-5.2c2.5-3.4,4.4-4.3,6.1-4.7c0.6-0.2,1.4-0.1,2.3,0.1c1.3,0.4,2.8,1.2,3.9,1.9
		c-0.5-3.2-1.2-9.2,0.8-11.9c0.6-0.8,1.5-1.3,2.5-1.4c0.8-0.1,1.5,0.2,2,0.8c1.6,1.6,2.1,5.6,2.2,9c0.7-1.6,1.5-3.2,2.4-4.2
		c0.9-0.9,1.8-1.3,2.7-1.1c3.2,0.8,2.8,4.7,1.2,11.7c1.4-1.6,3.3-2.9,5-2c0.5,0.3,1.2,0.9,1.2,2.3c0.3,3.9-3.6,12.5-10.1,16.9
		c-1,0.7-2.1,1.3-3.2,1.7C97.2,71.6,95.1,71.9,93.3,71.9z M81,60.5c-0.6,1,1,4.6,4.8,7.2c2.2,1.6,6.9,3.8,12.9,1.3
		c1-0.4,2-1,2.9-1.6c0,0,0,0,0,0c6-4,9.6-11.9,9.4-15.4c0-0.6-0.2-0.8-0.3-0.9c-1.4-0.7-4,2.6-5.4,5c-0.2,0.4-0.7,0.5-1.1,0.4
		c-0.4-0.2-0.6-0.6-0.5-1l0.2-0.8c1.8-7.6,3-12.6,0.9-13.2c-0.3-0.1-0.7,0.3-1,0.6c-2.1,2.2-3.8,8.8-3.8,8.8c-0.1,0.4-0.5,0.7-1,0.6
		c-0.4-0.1-0.8-0.5-0.7-0.9c0.3-4.2,0.1-11.6-1.6-13.3c-0.3-0.3-0.5-0.3-0.7-0.3c-0.5,0-0.9,0.3-1.2,0.7c-1.8,2.5-0.7,9.9-0.1,12.5
		c0.1,0.4-0.1,0.7-0.4,0.9c-0.3,0.2-0.7,0.2-1,0c0,0-2.9-2.1-5.1-2.8c-0.7-0.2-1.1-0.2-1.4-0.1c-1.3,0.3-2.9,1-5.2,4
		c-1.3,1.7-1.4,2.8-1.1,3.3c0.2,0.3,0.8,0.5,1.4,0.4c0.6-0.1,1.1-0.6,1.7-1.1c0.9-0.8,2-1.7,3.8-1.9c0.5,0,0.9,0,1.5,0.2
		c1.7,0.5,3.8,1.8,4.7,3.8c0.6,1.3,0.6,2.6,0,3.9c-0.6,1.3-1.6,2.3-2.8,2.7c-1.2,0.4-2.6,0.2-4-0.5c-0.7-0.4-1.3-0.9-1.8-1.5
		c-1.4-1.5-2.4-2.2-3.1-2.2C82,59.5,81.7,59.7,81,60.5z M82.4,57.8c1.2,0,2.5,0.9,4.2,2.7c0.4,0.5,0.9,0.8,1.4,1.1
		c0.9,0.5,1.8,0.6,2.6,0.4c0.7-0.2,1.4-0.8,1.8-1.7c0.4-0.8,0.4-1.6,0-2.4c-0.7-1.4-2.3-2.5-3.6-2.9c-0.3-0.1-0.6-0.1-0.9-0.1
		c-1.2,0.1-1.9,0.7-2.8,1.4c-0.7,0.6-1.5,1.3-2.5,1.5C82.5,57.8,82.5,57.8,82.4,57.8z" fill="#15377C" stroke-width="0"></path>
</g>
<g>
	<path d="M15.8,85.7c-1.1,0-2.1-0.4-3-1.1c0,0-0.1-0.1-0.1-0.1c-0.4-0.5-0.8-1-1.1-1.5c-5.8-8-9.1-17.4-9.7-27.3
		c0-0.4,0-0.9-0.1-1.3c0-0.5,0-1.1,0-1.7C1.8,24.2,25,1,53.5,1c11.8,0,23.4,4.1,32.6,11.5c9,7.3,15.4,17.6,17.9,28.9
		c0.1,0.2,0,0.5-0.2,0.7c-2.1,2.3-3.8,8.8-3.8,8.9c-0.1,0.4-0.5,0.6-0.8,0.5c-0.4-0.1-0.6-0.4-0.6-0.8c0.2-3.1,0.3-11.4-1.7-13.4
		c-0.2-0.2-0.5-0.3-0.8-0.3c-0.5,0-0.9,0.3-1.3,0.8c-1.8,2.5-0.7,10-0.1,12.6c0.1,0.3-0.1,0.6-0.3,0.8c-0.3,0.2-0.6,0.2-0.8,0
		c0,0-2.9-2.2-5.1-2.8c-0.3-0.1-0.5-0.3-0.5-0.6C85.5,30.8,70.7,18,53.5,18c-19.1,0-34.7,15.6-34.7,34.7c0,0.6,0,1.1,0,1.7
		c0,0.1,0,0.2,0,0.4c0,0,0,0,0,0.1v0c0.4,6.7,2.7,13.1,6.8,18.5c0.2,0.3,0.2,0.7-0.1,1c-0.3,0.3-0.7,0.3-1,0c-1.1-1-2.7-1.1-3.9-0.3
		c-1.5,1-1.9,2.9-0.9,4.4c0.7,1,0.9,2.3,0.7,3.5c-0.3,1.2-1,2.3-2,3C17.6,85.4,16.7,85.7,15.8,85.7z M13.8,83.5
		c1.1,0.8,2.5,0.9,3.7,0.2c0.7-0.5,1.2-1.2,1.4-2c0.2-0.8,0-1.7-0.5-2.4c-1.4-2.2-0.8-5,1.4-6.5c0.9-0.6,2-0.9,3.1-0.7
		c-3.3-5.2-5.2-11-5.6-17.2l0-0.1c0-0.1,0-0.3,0-0.4c0-0.6,0-1.2,0-1.8c0-20,16.2-36.2,36.2-36.2c8.8,0,17.2,3.2,23.8,8.9
		c6.4,5.6,10.6,13.3,11.9,21.7c1.3,0.4,2.6,1.2,3.6,1.9c-0.5-3.1-1.3-9.4,0.7-12.1c0.6-0.8,1.4-1.3,2.4-1.4c0.7-0.1,1.4,0.2,1.9,0.7
		c1.7,1.6,2.1,6,2.2,9.6c0.6-1.6,1.5-3.3,2.4-4.5C97.2,18.8,76.7,2.5,53.5,2.5C25.8,2.5,3.3,25,3.3,52.7c0,0.6,0,1.1,0,1.6
		c0,0.4,0,0.9,0.1,1.3c0.5,9.6,3.8,18.7,9.4,26.5C13.1,82.6,13.5,83.1,13.8,83.5z" fill="#15377C" stroke-width="0"></path>
</g>
<g>
	<path d="M19,79.5c-0.2,0-0.4-0.1-0.6-0.2c-3.7-4.1-5.6-8.6-5.6-8.8c-0.2-0.4,0-0.8,0.4-1c0.4-0.2,0.8,0,1,0.4
		c0,0,1.9,4.5,5.4,8.3c0.3,0.3,0.3,0.8-0.1,1C19.4,79.5,19.2,79.5,19,79.5z" fill="#15377C" stroke-width="0"></path>
</g>
<g>
	<path d="M35.5,67.9" fill="none" stroke-width="0"></path>
</g>
<g>
	<g>
		<g>
			<g>
				<path d="M67.3,35c-0.2-3.2-1.2-5.6-3.1-7.1c-3.4-2.8-8.7-2-11.3-1.6c-0.3,0.1-0.7,0.1-0.9,0.1
					c-1.3-1.8-2.9-2.9-5-3.3c-4.5-0.7-9.3,2.6-10.5,3.4c-2.3-0.3-4.4-0.3-6.3,0.1c-1,0.5-2.1,1-3,1.6c-0.1,0.2-0.2,0.3-0.3,0.5
					c-0.3,0.4-0.7,0.8-1,1.3c0,0.1-0.1,0.1-0.1,0.2c-1.1,1.5-2,3-2.9,4.6c0,0,0,0.1-0.1,0.1c-0.2,0.4-0.5,0.9-0.7,1.3
					c-0.2,0.6-0.3,1.1-0.4,1.6c0,0.1-0.1,0.3-0.1,0.4c0,0,0,0.1-0.1,0.1c-0.2,0.3-0.4,0.6-0.6,0.8c0,0.6-0.1,1.2-0.3,1.8
					c0,0,0,0.1,0,0.1c0,0.9-0.6,1.3-0.6,1.6c-0.3,0.4-0.2,1.5-0.9,2.7c0.2,0.5,0.2,1.1-0.1,1.7c-0.3,0.6-0.4,1.2-0.6,1.8
					c0,0,0,0,0,0c0,0,0,0.1,0,0.1c-0.1,0.3-0.1,0.5-0.1,0.8c0,0,0,0.1,0,0.1c0,0.3-0.1,0.5-0.1,0.8c0,0,0,0.1,0,0.1
					c0,0.3,0,0.5,0,0.8c0,0.1,0,0.1,0,0.2c0,0.3,0,0.5,0,0.8c0,0.1,0,0.1,0,0.2c0,0.3,0,0.5,0,0.8c0,0.1,0,0.1,0,0.2
					c0,0.2,0,0.3,0,0.5c0,0,0,0,0,0c0,0.7,0.1,1.4,0.1,2.1c0,0.1,0,0.2,0,0.3c0.6,1.8,1.4,3.5,2,5.3c0.1,0.3,0.1,0.5,0.1,0.7
					c0,0,0,0,0,0.1c0,0.1,0,0.2,0,0.3c0,0,0,0,0,0c0,0.1-0.1,0.2-0.1,0.3c0.1,0.1,0.1,0.2,0.2,0.4c0,0,0,0,0,0c0,0,0,0.1,0,0.1
					c0,0.1,0,0.3,0.1,0.4c0.1,0.3,0.1,0.6,0.1,0.9c1.1,1.4,2.5,2.7,4.1,3.9c1.9,1.4,3.8,2.1,5.6,2.1c0.6,0,1.2-0.1,1.8-0.2
					c4.2-1.1,6.3-5.9,6.4-6.1l1.4-3.3c0.1-0.2,0.1-0.4,0-0.6c-0.1-0.2-0.3-0.3-0.5-0.4c-0.2-0.1-4.5-1.3-4.3-5.1
					c0.1-1.3,0.7-2.2,2-2.6c1.2-0.4,2.5-0.3,3.6,0.4c1.1,0.7,1.9,1.8,2.1,3.1c0.2,1.3,0.1,2.3,0.1,2.3c0,0.3,0.1,0.6,0.4,0.8
					c0.3,0.1,0.6,0.1,0.9-0.2c4.6-4.8,3.4-9.3,2.5-11.3c6.2-0.9,10.2-5.1,11.8-7.2c1.2,2.1,3.6,3,3.8,3.1c0.2,0.1,0.5,0.1,0.7-0.1
					C67.5,40.1,67.3,35.2,67.3,35z" fill="#15377C" stroke-width="0"></path>
			</g>
			<g>
				<path d="M52.6,85c-5.1,0-16.8-1.5-23.3-14.1c-0.2-0.4,0-0.8,0.3-1c0.4-0.2,0.8,0,1,0.3c7.2,14,20.8,13.5,23.7,13.2
					c0.9-9.1-16.9-18-17.1-18.1c-0.4-0.2-0.5-0.6-0.3-1c0.2-0.4,0.6-0.5,1-0.3c0.8,0.4,19.7,9.9,17.8,20.2c-0.1,0.3-0.3,0.6-0.6,0.6
					C55,84.9,54.1,85,52.6,85z M55,84.1L55,84.1L55,84.1z" fill="#15377C" stroke-width="0"></path>
			</g>
			<g>
				<path d="M58.6,87.7c-0.4,0-0.7-0.3-0.7-0.6c-0.5-2.9-3.2-5-3.3-5c-0.2-0.2-0.4-0.5-0.3-0.8c0.1-0.3,0.3-0.5,0.7-0.5
					c8.3-0.7,9.1-7.2,9.2-9.3c-8.5-0.7-10.5,4.6-10.6,4.8c-0.1,0.4-0.6,0.6-0.9,0.4c-0.4-0.1-0.6-0.6-0.4-0.9c0-0.1,2.6-7,12.8-5.8
					c0.4,0,0.6,0.3,0.7,0.7c0,0.1,0.6,9.5-8.9,11.3c1,1,2.3,2.7,2.6,4.8c0.1,0.4-0.2,0.8-0.6,0.9C58.7,87.7,58.7,87.7,58.6,87.7z" fill="#15377C" stroke-width="0"></path>
			</g>
			<g>
				<path d="M51.6,75.8c-0.1,0-0.3,0-0.4-0.1c-0.3-0.2-0.5-0.7-0.2-1c0.3-0.5,0.7-1.2,1-1.9c1.4-2.8,3.2-6.3,5.8-6.7
					c0.8-0.1,1.6-0.1,2.5,0c2.4,0.1,4.6,0.2,5.9-2.4c1-3.4,1.2-6.4,0.5-9.6c-0.1-0.4,0.1-0.7,0.5-0.8c0,0,0.1,0,0.1,0
					c0.3-0.1,1.3-0.4,1.1-1.7c-0.1-0.5-0.7-0.7-2-0.7c-0.2,0-0.3,0-0.4,0c-0.3,0-0.5-0.2-0.6-0.5c-1.5-4.1-3.5-6.4-3.5-6.4
					c-0.3-0.3-0.2-0.8,0.1-1c0.3-0.3,0.8-0.2,1,0.1c0.1,0.1,2,2.3,3.6,6.4c1,0,3,0,3.3,1.9c0.3,1.7-0.6,2.7-1.5,3.2
					c0.6,3.2,0.4,6.4-0.7,9.8c0,0,0,0.1,0,0.1c-1.7,3.6-4.8,3.4-7.3,3.3c-0.8,0-1.6-0.1-2.2,0c-1.9,0.3-3.5,3.5-4.7,5.9
					c-0.4,0.8-0.8,1.5-1.1,2.1C52.1,75.7,51.9,75.8,51.6,75.8z" fill="#15377C" stroke-width="0"></path>
			</g>
			<g>
				<path d="M68.8,85.6c-0.2,0-0.5-0.1-0.6-0.3c-2.1-3.2-6.7-5.7-6.8-5.7c-0.4-0.2-0.5-0.6-0.3-1c0.2-0.4,0.6-0.5,1-0.3
					c0.2,0.1,5,2.8,7.3,6.2c0.2,0.3,0.1,0.8-0.2,1C69.1,85.6,68.9,85.6,68.8,85.6z" fill="#15377C" stroke-width="0"></path>
			</g>
			<g>
				<path d="M58.9,52.4c-0.4,0-0.8-0.2-1-0.6l-1-1.8c-0.3-0.6-0.1-1.3,0.4-1.6c0.6-0.3,1.3-0.1,1.6,0.4l1,1.8
					c0.3,0.6,0.1,1.3-0.4,1.6C59.3,52.3,59.1,52.4,58.9,52.4z" fill="#15377C" stroke-width="0"></path>
			</g>
			<g>
				<path d="M54.2,79.9c-0.1,0-0.3,0-0.4-0.1c-0.3-0.2-0.4-0.7-0.2-1c0.1-0.2,3-4.1,7.3-5.3c0.4-0.1,0.8,0.1,0.9,0.5
					c0.1,0.4-0.1,0.8-0.5,0.9c-3.9,1.1-6.5,4.7-6.5,4.7C54.7,79.8,54.5,79.9,54.2,79.9z" fill="#15377C" stroke-width="0"></path>
			</g>
			<g>
				<path d="M23.6,73.8c-0.3,0-0.6-0.2-0.7-0.4c-0.2-0.4,0-0.8,0.4-1c2.9-1.3,5.1-1.5,6.2-1.6c0.2,0,0.5-0.1,0.6-0.1
					c0.3-0.2,0.8,0,1,0.3c0.2,0.4,0.1,0.8-0.3,1c-0.3,0.1-0.6,0.2-1.1,0.2c-1.1,0.1-3.1,0.3-5.8,1.5C23.8,73.8,23.7,73.8,23.6,73.8z
					 M30.1,70.7C30.1,70.7,30.1,70.7,30.1,70.7C30.1,70.7,30.1,70.7,30.1,70.7z" fill="#15377C" stroke-width="0"></path>
			</g>
		</g>
		<g>
			<circle cx="56.5" cy="57.8" r="3.6" fill="#ED5642" stroke-width="0"></circle>
		</g>
		<g>
			<path d="M65.2,60.8c-0.6,0-1.2-0.1-2-0.4c-0.4-0.1-0.6-0.5-0.5-0.9c0.1-0.4,0.5-0.6,0.9-0.5c2.5,0.8,3.5-0.6,3.5-0.6
				c0.2-0.3,0.7-0.5,1-0.2c0.3,0.2,0.5,0.7,0.3,1C68.4,59.2,67.5,60.8,65.2,60.8z" fill="#15377C" stroke-width="0"></path>
		</g>
		<g>
			<path d="M55,84.9c-0.1,0-0.2,0-0.2,0c-0.3-0.1-8.5-2.8-13.6-8.9c-0.3-0.3-0.2-0.8,0.1-1c0.3-0.3,0.8-0.2,1,0.1
				c4.8,5.8,12.8,8.4,12.9,8.4c0.4,0.1,0.6,0.5,0.5,0.9C55.6,84.7,55.3,84.9,55,84.9z" fill="#15377C" stroke-width="0"></path>
		</g>
	</g>
	<g>
		<path d="M40.7,57.7c-0.3,0-0.6-0.2-0.7-0.4c-0.8-1.7-2.1-1.5-2.3-1.5c-0.4,0.1-0.8-0.2-0.9-0.6
			c-0.1-0.4,0.1-0.8,0.5-0.9c0.9-0.2,2.9,0,4,2.3c0.2,0.4,0,0.8-0.4,1C40.9,57.7,40.8,57.7,40.7,57.7z" fill="#15377C" stroke-width="0"></path>
	</g>
</g>
</svg></g></g><g id="shape_e3huJupn1t" transform="translate(232.890000000005,178.07584919076504) rotate(0,250.18454091017998,244.15109374999997) scale(1,1)" filter="" style="cursor: move; opacity: 1;"><g><svg xmlns="http://www.w3.org/2000/svg" version="1.1" xmlns:xlink="http://www.w3.org/1999/xlink" width="473.44" height="488.30218749999995" viewBox="0 0 473.44 488.30218749999995" data-parent="shape_e3huJupn1t"><rect fill="rgba(0,0,0,0)" width="195" height="69" x="69.61" y="209.65109374999997"></rect><g data-width="194.02428173819357" transform="translate(70.09785913090322, 0)"><path d="M8.43 7.61L8.43 7.61Q7.48 7.21 7.07 6.25L7.07 6.25L7.07 5.03Q7.61 3.94 8.70 3.53L8.70 3.53Q11.42 2.86 13.73 1.09Q16.04-0.68 18.42-4.49L18.42-4.49Q23.18-13.94 24.68-26.58Q26.17-39.22 26.99-51.26L26.99-51.26L21.69-51.26L19.65-51.12L18.15-51.94Q17.54-52.62 17.74-53.70L17.74-53.70Q18.15-54.65 19.10-55.06L19.10-55.06L21.69-55.20L28.62-55.20L29.84-55.33Q30.79-54.93 31.20-53.97L31.20-53.97L31.20-52.07Q29.98-38.68 28.28-24.34Q26.58-9.99 19.24 1.63L19.24 1.63Q16.86 4.08 14.21 5.64Q11.56 7.21 8.43 7.61Z" transform="translate(0 268.65109375) " fill="rgb(21, 55, 124)" stroke="rgb(21, 55, 124)" stroke-width="2.32" data-glyph-w="38.80485634763871" data-glyph-h="69.61" data-glyph-ascender="59.82109375" data-glyph-descender="-9.78890625"></path><path d="M7.34 0.14L5.98 0.68L4.49-0.14L3.94-1.63Q5.85-13.53 6.53-25.49Q7.21-37.46 8.43-49.49L8.43-49.49L8.16-49.49Q6.25-48.26 4.08-47.99L4.08-47.99Q3.13-48.40 2.72-49.35L2.72-49.35L2.72-50.58L4.08-52.07Q7.89-53.70 12.03-54.45Q16.18-55.20 20.73-55.06L20.73-55.06Q23.59-54.65 25.97-53.36Q28.35-52.07 30.39-49.90L30.39-49.90Q32.43-47.04 32.90-43.61Q33.38-40.18 33.24-36.50L33.24-36.50Q32.83-33.65 31.27-31.27Q29.71-28.89 27.40-26.85L27.40-26.85Q23.45-24.13 19.07-22.23Q14.68-20.33 10.06-19.51L10.06-19.51Q9.65-14.48 8.97-9.55Q8.29-4.62 7.34 0.14L7.34 0.14ZM20.46-27.26L20.46-27.26Q23.04-28.35 25.29-30.32Q27.53-32.29 28.75-34.87L28.75-34.87Q29.57-38.00 29.30-41.53L29.30-41.53Q29.03-43.57 28.35-45.51Q27.67-47.45 25.90-48.81L25.90-48.81Q23.86-50.30 21.41-50.85Q18.97-51.39 16.04-51.12L16.04-51.12L12.78-50.58Q11.83-43.85 11.22-37.12Q10.60-30.39 10.33-23.59L10.33-23.59L11.01-23.59Q13.46-24.27 15.81-25.22Q18.15-26.17 20.46-27.26Z" transform="translate(38.80485634763871 268.65109375) " fill="rgb(21, 55, 124)" stroke="rgb(21, 55, 124)" stroke-width="2.32" data-glyph-w="38.80485634763871" data-glyph-h="69.61" data-glyph-ascender="59.82109375" data-glyph-descender="-9.78890625"></path><path d="M4.35 0.54L4.35 0.54Q3.40 0.14 2.99-0.82L2.99-0.82L2.86-2.45Q3.67-10.40 4.01-18.42Q4.35-26.44 4.89-34.47L4.89-34.47L4.89-41.13Q5.17-42.89 5.30-44.70Q5.44-46.50 5.44-48.26L5.44-48.26Q4.21-48.26 3.26-49.08L3.26-49.08Q2.72-49.76 2.86-50.85L2.86-50.85Q3.26-51.94 4.35-52.34L4.35-52.34Q11.28-53.43 18.39-53.77Q25.49-54.11 32.29-55.33L32.29-55.33Q33.24-54.93 33.65-53.97L33.65-53.97L33.65-52.75Q33.24-51.66 32.15-51.26L32.15-51.26L29.98-50.98L29.57-51.12Q24.68-50.03 19.61-49.83Q14.55-49.62 9.52-49.08L9.52-49.08L8.84-41.13L8.84-34.47L8.57-28.89L9.38-28.89Q14.14-30.11 19.07-30.52Q24.00-30.93 29.03-31.20L29.03-31.20L30.39-30.39Q30.93-29.71 30.79-28.62L30.79-28.62Q30.39-27.67 29.43-27.26L29.43-27.26L28.48-27.12L26.85-27.26Q22.23-26.85 17.50-26.38Q12.78-25.90 8.43-24.54L8.43-24.54Q7.89-18.42 7.68-12.07Q7.48-5.71 6.12 0.14L6.12 0.14Q5.44 0.68 4.35 0.54Z" transform="translate(77.60971269527742 268.65109375) " fill="rgb(21, 55, 124)" stroke="rgb(21, 55, 124)" stroke-width="2.32" data-glyph-w="38.80485634763871" data-glyph-h="69.61" data-glyph-ascender="59.82109375" data-glyph-descender="-9.78890625"></path><path d="M9.38-0.27L5.98 0.54L4.49-0.27Q3.94-1.09 4.08-2.18L4.08-2.18Q5.98-15.43 7.55-26.99Q9.11-38.54 10.33-50.17L10.33-50.17L8.84-50.98Q8.29-51.66 8.43-52.75L8.43-52.75Q8.84-53.70 9.79-54.11L9.79-54.11L12.78-54.11L14.14-53.30Q14.82-52.21 14.55-50.71L14.55-50.71Q13.19-39.36 11.69-28.14Q10.20-16.93 8.43-4.08L8.43-4.08L8.84-4.08L8.97-4.21L14.68-4.21L19.92-3.94L27.26-3.94L29.84-3.67L31.47-3.94Q32.43-3.53 32.83-2.58L32.83-2.58L32.83-1.50Q32.29-0.27 31.07 0.14L31.07 0.14L28.75 0.27L26.72 0L19.65 0L9.38-0.27Z" transform="translate(116.41456904291613 268.65109375) " fill="rgb(21, 55, 124)" stroke="rgb(21, 55, 124)" stroke-width="2.32" data-glyph-w="38.80485634763871" data-glyph-h="69.61" data-glyph-ascender="59.82109375" data-glyph-descender="-9.78890625"></path><path d="M23.04 1.50L23.04 1.50Q22.09 1.09 21.69 0.14L21.69 0.14L21.55-1.09Q22.50-6.93 23.11-10.50Q23.72-14.07 24.13-19.92L24.13-19.92L23.86-19.92Q21.82-18.15 19.27-17.33Q16.72-16.52 13.87-16.79L13.87-16.79Q10.47-17.33 8.02-20.05L8.02-20.05Q5.71-22.23 5.17-25.22Q4.62-28.21 4.89-31.47L4.89-31.47Q5.30-35.55 6.12-41.09Q6.93-46.63 7.34-50.58L7.34-50.58L7.07-51.26Q5.03-50.98 3.53-52.07L3.53-52.07Q2.99-52.75 3.13-53.84L3.13-53.84Q3.53-54.79 4.49-55.20L4.49-55.20L8.16-55.20L10.20-53.70Q11.69-51.53 11.28-48.54L11.28-48.54Q10.33-43.98 9.45-37.80Q8.57-31.61 8.84-26.58L8.84-26.58Q9.38-24.00 11.56-22.09L11.56-22.09Q13.87-20.33 16.99-20.73L16.99-20.73Q19.10-21.28 20.73-22.50Q22.36-23.72 24.00-25.22L24.00-25.22Q24.95-32.15 25.90-39.19Q26.85-46.23 28.75-53.02L28.75-53.02Q29.43-53.57 30.52-53.43L30.52-53.43Q31.47-53.02 31.88-52.07L31.88-52.07L31.88-50.58Q29.03-36.37 28.21-23.83Q27.40-11.28 24.81 1.09L24.81 1.09Q24.13 1.63 23.04 1.50Z" transform="translate(155.21942539055485 268.65109375) " fill="rgb(21, 55, 124)" stroke="rgb(21, 55, 124)" stroke-width="2.32" data-glyph-w="38.80485634763871" data-glyph-h="69.61" data-glyph-ascender="59.82109375" data-glyph-descender="-9.78890625"></path></g></svg></g></g>  <!----><defs><pattern id="wm_tile" x="0" y="0" width="20%" height="27%" patternunits="objectBoundingBox"><g id="wm_lm" transform="translate(-188.000000, -323.000000)" fill="#cccccc"><text font-size="15" transform="translate(270.490979, 373.245789) rotate(-390.000000) translate(-270.490979, -373.245789)"><tspan x="187.490979" opacity=".3" y="378.245789"></tspan></text></g></pattern></defs><rect x="0" y="0" width="100%" height="100%" style="fill: url(#wm_tile);"></rect></svg>